<?xml version="1.0" encoding="UTF-8" standalone="no"?>
<svg width="1200" height="800" xmlns="http://www.w3.org/2000/svg">
    <!-- Background -->
    <rect width="100%" height="100%" fill="#f8f9fa"/>
    
    <!-- Navigation Sidebar -->
    <rect x="0" y="0" width="250" height="800" fill="#ffffff" stroke="#e9ecef"/>
    <!-- Logo Area -->
    <rect x="20" y="20" width="210" height="60" rx="5" fill="#f1f3f5"/>
    <!-- Nav Items -->
    <rect x="20" y="100" width="210" height="50" rx="5" fill="#e9ecef"/>
    <rect x="20" y="160" width="210" height="50" rx="5" fill="#f1f3f5"/>
    <rect x="20" y="220" width="210" height="50" rx="5" fill="#f1f3f5"/>
    <rect x="20" y="280" width="210" height="50" rx="5" fill="#f1f3f5"/>
    
    <!-- Main Content Area -->
    <rect x="270" y="0" width="910" height="800" fill="#ffffff"/>
    
    <!-- Header Area -->
    <rect x="290" y="20" width="870" height="60" rx="5" fill="#f8f9fa"/>
    
    <!-- Stats Cards -->
    <rect x="290" y="100" width="200" height="120" rx="8" fill="#ffffff" stroke="#e9ecef"/>
    <rect x="510" y="100" width="200" height="120" rx="8" fill="#ffffff" stroke="#e9ecef"/>
    <rect x="730" y="100" width="200" height="120" rx="8" fill="#ffffff" stroke="#e9ecef"/>
    <rect x="950" y="100" width="200" height="120" rx="8" fill="#ffffff" stroke="#e9ecef"/>
    
    <!-- Charts Area -->
    <rect x="290" y="240" width="420" height="250" rx="8" fill="#ffffff" stroke="#e9ecef"/>
    <rect x="730" y="240" width="420" height="250" rx="8" fill="#ffffff" stroke="#e9ecef"/>
    
    <!-- Recent Activity -->
    <rect x="290" y="510" width="860" height="270" rx="8" fill="#ffffff" stroke="#e9ecef"/>
    
    <!-- Chart Elements -->
    <path d="M310 440 L690 440" stroke="#e9ecef"/>
    <path d="M310 390 L690 390" stroke="#e9ecef"/>
    <path d="M310 340 L690 340" stroke="#e9ecef"/>
    <path d="M750 440 L1130 440" stroke="#e9ecef"/>
    <path d="M750 390 L1130 390" stroke="#e9ecef"/>
    <path d="M750 340 L1130 340" stroke="#e9ecef"/>
    
    <!-- Table Headers -->
    <rect x="310" y="530" width="820" height="40" fill="#f8f9fa"/>
    <!-- Table Rows -->
    <rect x="310" y="570" width="820" height="40" fill="#ffffff"/>
    <rect x="310" y="610" width="820" height="40" fill="#f8f9fa"/>
    <rect x="310" y="650" width="820" height="40" fill="#ffffff"/>
    <rect x="310" y="690" width="820" height="40" fill="#f8f9fa"/>
</svg>
