<?xml version="1.0" encoding="UTF-8" standalone="no"?>
<svg width="1200" height="800" xmlns="http://www.w3.org/2000/svg">
    <!-- Background -->
    <rect width="100%" height="100%" fill="#f8f9fa"/>
    
    <!-- Navigation Sidebar -->
    <rect x="0" y="0" width="250" height="800" fill="#ffffff" stroke="#e9ecef"/>
    <!-- Logo Area -->
    <rect x="20" y="20" width="210" height="60" rx="5" fill="#f1f3f5"/>
    <!-- Nav Items -->
    <rect x="20" y="100" width="210" height="50" rx="5" fill="#f1f3f5"/>
    <rect x="20" y="160" width="210" height="50" rx="5" fill="#e9ecef"/>
    <rect x="20" y="220" width="210" height="50" rx="5" fill="#f1f3f5"/>
    <rect x="20" y="280" width="210" height="50" rx="5" fill="#f1f3f5"/>
    
    <!-- Main Content Area -->
    <rect x="270" y="0" width="910" height="800" fill="#ffffff"/>
    
    <!-- Header & Search -->
    <rect x="290" y="20" width="870" height="60" rx="5" fill="#f8f9fa"/>
    <rect x="310" y="30" width="300" height="40" rx="5" fill="#ffffff" stroke="#e9ecef"/>
    
    <!-- Filter Bar -->
    <rect x="290" y="100" width="870" height="60" rx="5" fill="#ffffff" stroke="#e9ecef"/>
    <!-- Filter Items -->
    <rect x="310" y="115" width="120" height="30" rx="15" fill="#f1f3f5"/>
    <rect x="440" y="115" width="120" height="30" rx="15" fill="#f1f3f5"/>
    <rect x="570" y="115" width="120" height="30" rx="15" fill="#f1f3f5"/>
    
    <!-- Orders Table -->
    <!-- Table Header -->
    <rect x="290" y="180" width="870" height="50" rx="5" fill="#f8f9fa"/>
    <!-- Column Headers -->
    <rect x="310" y="195" width="150" height="20" fill="#e9ecef"/>
    <rect x="480" y="195" width="150" height="20" fill="#e9ecef"/>
    <rect x="650" y="195" width="150" height="20" fill="#e9ecef"/>
    <rect x="820" y="195" width="150" height="20" fill="#e9ecef"/>
    
    <!-- Table Rows -->
    <rect x="290" y="230" width="870" height="70" fill="#ffffff" stroke="#e9ecef"/>
    <rect x="290" y="300" width="870" height="70" fill="#ffffff" stroke="#e9ecef"/>
    <rect x="290" y="370" width="870" height="70" fill="#ffffff" stroke="#e9ecef"/>
    <rect x="290" y="440" width="870" height="70" fill="#ffffff" stroke="#e9ecef"/>
    <rect x="290" y="510" width="870" height="70" fill="#ffffff" stroke="#e9ecef"/>
    <rect x="290" y="580" width="870" height="70" fill="#ffffff" stroke="#e9ecef"/>
    
    <!-- Status Indicators -->
    <circle cx="330" cy="265" r="8" fill="#40c057"/>
    <circle cx="330" cy="335" r="8" fill="#fd7e14"/>
    <circle cx="330" cy="405" r="8" fill="#40c057"/>
    <circle cx="330" cy="475" r="8" fill="#fa5252"/>
    <circle cx="330" cy="545" r="8" fill="#40c057"/>
    <circle cx="330" cy="615" r="8" fill="#fd7e14"/>
    
    <!-- Pagination -->
    <rect x="290" y="670" width="870" height="50" rx="5" fill="#ffffff" stroke="#e9ecef"/>
    <rect x="310" y="680" width="40" height="30" rx="5" fill="#f1f3f5"/>
    <rect x="360" y="680" width="40" height="30" rx="5" fill="#f1f3f5"/>
    <rect x="410" y="680" width="40" height="30" rx="5" fill="#f1f3f5"/>
</svg>
